<?xml version="1.0" encoding="UTF-8" standalone="no"?>
<!DOCTYPE svg PUBLIC "-//W3C//DTD SVG 1.1//EN"
 "http://www.w3.org/Graphics/SVG/1.1/DTD/svg11.dtd">
<!-- Generated by graphviz version 2.40.1 (20161225.0304)
 -->
<!-- Title: %3 Pages: 1 -->
<svg width="277pt" height="380pt"
 viewBox="0.00 0.00 276.66 380.00" xmlns="http://www.w3.org/2000/svg" xmlns:xlink="http://www.w3.org/1999/xlink">
<g id="graph0" class="graph" transform="scale(1 1) rotate(0) translate(4 376)">
<title>%3</title>
<polygon fill="#ffffff" stroke="transparent" points="-4,4 -4,-376 272.6636,-376 272.6636,4 -4,4"/>
<!-- systemd -->
<g id="node1" class="node">
<title>systemd</title>
<polygon fill="none" stroke="#000000" points="186.6636,-372 34.6636,-372 34.6636,-336 186.6636,-336 186.6636,-372"/>
<text text-anchor="middle" x="110.6636" y="-350.3" font-family="Times,serif" font-size="14.00" fill="#000000">systemd&#45;suspend.service</text>
</g>
<!-- wrapper -->
<g id="node2" class="node">
<title>wrapper</title>
<ellipse fill="none" stroke="#000000" cx="110.6636" cy="-267" rx="110.4804" ry="18"/>
<text text-anchor="middle" x="110.6636" y="-263.3" font-family="Times,serif" font-size="14.00" fill="#000000">cryptsetup&#45;suspend&#45;wrapper</text>
</g>
<!-- systemd&#45;&gt;wrapper -->
<g id="edge1" class="edge">
<title>systemd&#45;&gt;wrapper</title>
<path fill="none" stroke="#000000" d="M102.6547,-335.6508C100.6075,-330.0893 98.6947,-323.891 97.6636,-318 96.3423,-310.4509 97.2823,-302.3738 99.1437,-294.9252"/>
<polygon fill="#000000" stroke="#000000" points="102.52,-295.8536 102.1272,-285.2661 95.8318,-293.7877 102.52,-295.8536"/>
<text text-anchor="middle" x="101.6636" y="-306.8" font-family="Times,serif" font-size="14.00" fill="#000000"> &#160;</text>
</g>
<!-- wrapper&#45;&gt;systemd -->
<g id="edge6" class="edge">
<title>wrapper&#45;&gt;systemd</title>
<path fill="none" stroke="#000000" d="M110.6636,-285.0034C110.6636,-296.7801 110.6636,-312.4102 110.6636,-325.8156"/>
<polygon fill="#000000" stroke="#000000" points="107.1637,-325.9735 110.6636,-335.9735 114.1637,-325.9736 107.1637,-325.9735"/>
<text text-anchor="middle" x="137.6636" y="-306.8" font-family="Times,serif" font-size="14.00" fill="#000000"> &#160;clean up</text>
</g>
<!-- suspend -->
<g id="node3" class="node">
<title>suspend</title>
<ellipse fill="none" stroke="#000000" cx="110.6636" cy="-135" rx="85.2851" ry="18"/>
<text text-anchor="middle" x="110.6636" y="-131.3" font-family="Times,serif" font-size="14.00" fill="#000000">cryptsetup&#45;suspend.c</text>
</g>
<!-- wrapper&#45;&gt;suspend -->
<g id="edge2" class="edge">
<title>wrapper&#45;&gt;suspend</title>
<path fill="none" stroke="#000000" d="M71.8286,-249.9885C64.5477,-244.9609 57.9009,-238.6878 53.6636,-231 40.7915,-207.6458 40.7915,-194.3542 53.6636,-171 56.5229,-165.8123 60.4793,-161.2688 64.9874,-157.3175"/>
<polygon fill="#000000" stroke="#000000" points="67.1627,-160.0604 72.9987,-151.2177 62.9221,-154.491 67.1627,-160.0604"/>
<text text-anchor="middle" x="100.1636" y="-219.8" font-family="Times,serif" font-size="14.00" fill="#000000"> &#160;build initramfs;</text>
<text text-anchor="middle" x="100.1636" y="-204.8" font-family="Times,serif" font-size="14.00" fill="#000000"> &#160;stop udev;</text>
<text text-anchor="middle" x="100.1636" y="-189.8" font-family="Times,serif" font-size="14.00" fill="#000000"> &#160;freeze cgroups;</text>
<text text-anchor="middle" x="100.1636" y="-174.8" font-family="Times,serif" font-size="14.00" fill="#000000"> &#160;chroot</text>
</g>
<!-- suspend&#45;&gt;wrapper -->
<g id="edge5" class="edge">
<title>suspend&#45;&gt;wrapper</title>
<path fill="none" stroke="#000000" d="M133.7315,-152.6263C138.9696,-157.9066 143.8223,-164.1405 146.6636,-171 156.8685,-195.6368 156.8685,-206.3632 146.6636,-231 145.1098,-234.7513 142.9544,-238.3154 140.4634,-241.6389"/>
<polygon fill="#000000" stroke="#000000" points="137.6565,-239.5327 133.7315,-249.3737 142.9367,-244.1283 137.6565,-239.5327"/>
<text text-anchor="middle" x="211.1636" y="-197.3" font-family="Times,serif" font-size="14.00" fill="#000000"> &#160;unlock luks devices</text>
</g>
<!-- kernel -->
<g id="node4" class="node">
<title>kernel</title>
<ellipse fill="none" stroke="#000000" cx="110.6636" cy="-18" rx="32.4942" ry="18"/>
<text text-anchor="middle" x="110.6636" y="-14.3" font-family="Times,serif" font-size="14.00" fill="#000000">kernel</text>
</g>
<!-- suspend&#45;&gt;kernel -->
<g id="edge3" class="edge">
<title>suspend&#45;&gt;kernel</title>
<path fill="none" stroke="#000000" d="M54.5181,-121.3708C34.1217,-115.1927 14.6019,-107.3932 8.6636,-99 -2.8879,-82.6732 -2.8879,-70.3268 8.6636,-54 16.1561,-43.41 45.2703,-33.7652 70.4858,-27.1297"/>
<polygon fill="#000000" stroke="#000000" points="71.4285,-30.5015 80.2617,-24.6512 69.7082,-23.7162 71.4285,-30.5015"/>
<text text-anchor="middle" x="104.6636" y="-87.8" font-family="Times,serif" font-size="14.00" fill="#000000"> &#160;/sys/power/sync_on_suspend = 0;</text>
<text text-anchor="middle" x="104.6636" y="-72.8" font-family="Times,serif" font-size="14.00" fill="#000000"> &#160;luks&#45;suspend;</text>
<text text-anchor="middle" x="104.6636" y="-57.8" font-family="Times,serif" font-size="14.00" fill="#000000"> &#160;suspend</text>
</g>
<!-- kernel&#45;&gt;suspend -->
<g id="edge4" class="edge">
<title>kernel&#45;&gt;suspend</title>
<path fill="none" stroke="#000000" d="M142.5465,-21.729C162.8717,-25.941 187.7382,-34.9087 200.6636,-54 211.8762,-70.5613 211.8762,-82.4387 200.6636,-99 195.4672,-106.6753 188.3408,-112.7143 180.3553,-117.4659"/>
<polygon fill="#000000" stroke="#000000" points="178.6529,-114.4063 171.4038,-122.133 181.8891,-120.6133 178.6529,-114.4063"/>
</g>
</g>
</svg>
